<?xml version="1.0" encoding="utf-8" standalone="no"?>
<!DOCTYPE svg PUBLIC "-//W3C//DTD SVG 1.1//EN"
  "http://www.w3.org/Graphics/SVG/1.1/DTD/svg11.dtd">
<!-- Created with matplotlib (http://matplotlib.org/) -->
<svg height="329pt" version="1.1" viewBox="0 0 602 329" width="602pt" xmlns="http://www.w3.org/2000/svg" xmlns:xlink="http://www.w3.org/1999/xlink">
 <defs>
  <style type="text/css">
*{stroke-linecap:butt;stroke-linejoin:round;}
  </style>
 </defs>
 <g id="figure_1">
  <g id="patch_1">
   <path d="
M-7.10543e-15 329.117
L602.098 329.117
L602.098 0
L-7.10543e-15 0
z
" style="fill:#ffffff;"/>
  </g>
  <g id="axes_1">
   <g id="patch_2">
    <path d="
M26.5758 304.345
L584.576 304.345
L584.576 25.3449
L26.5758 25.3449
z
" style="fill:#bcbcbc;"/>
   </g>
   <g id="matplotlib.axis_1">
    <g id="xtick_1">
     <g id="line2d_1">
      <path clip-path="url(#p50cafa3d47)" d="
M26.5758 304.345
L26.5758 25.3449" style="fill:none;stroke:#ffffff;stroke-linecap:square;stroke-width:0.5;"/>
     </g>
     <g id="line2d_2">
      <defs>
       <path d="
M0 0
L0 0" id="m8bc147ca23" style="stroke:#555555;stroke-width:0.5;"/>
      </defs>
      <g>
       <use style="fill:#555555;stroke:#555555;stroke-width:0.5;" x="26.57578125" xlink:href="#m8bc147ca23" y="304.34495"/>
      </g>
     </g>
     <g id="line2d_3">
      <g>
       <use style="fill:#555555;stroke:#555555;stroke-width:0.5;" x="26.57578125" xlink:href="#m8bc147ca23" y="25.34495"/>
      </g>
     </g>
     <g id="text_1">
      <!-- 0.0 -->
      <defs>
       <path d="
M29.6875 11.1875
Q32.2812 11.1875 34.0312 9.42188
Q35.7969 7.67188 35.7969 5.07812
Q35.7969 2.4375 34.0156 0.5625
Q32.2344 -1.3125 29.6875 -1.3125
Q27.2031 -1.3125 25.4375 0.5625
Q23.6875 2.4375 23.6875 5.07812
Q23.6875 7.71875 25.4219 9.45312
Q27.1562 11.1875 29.6875 11.1875" id="AndaleMono-2e"/>
       <path d="
M29.8906 70.2188
Q40.8281 70.2188 46.7031 60.8125
Q52.5938 51.4219 52.5938 34.4219
Q52.5938 17.9688 46.875 8.32812
Q41.1562 -1.3125 29.8906 -1.3125
Q19 -1.3125 13.0781 8.0625
Q7.17188 17.4375 7.17188 34.4219
Q7.17188 50.9219 12.9062 60.5625
Q18.6562 70.2188 29.8906 70.2188
M29.8906 5.71875
Q37.1094 5.71875 40.5938 12.5781
Q44.0938 19.4375 44.0938 34.4219
Q44.0938 49.4688 40.5938 56.2812
Q37.1094 63.0938 29.8906 63.0938
Q22.75 63.0938 19.2344 56.1094
Q15.7188 49.125 15.7188 34.4219
Q15.7188 19.5312 19.2031 12.625
Q22.7031 5.71875 29.8906 5.71875
M29.6875 41.75
Q32.7656 41.75 34.8906 39.625
Q37.0156 37.5 37.0156 34.4219
Q37.0156 31.25 34.8594 28.9688
Q32.7188 26.7031 29.6875 26.7031
Q26.7031 26.7031 24.5781 28.9688
Q22.4688 31.25 22.4688 34.4219
Q22.4688 37.5469 24.5312 39.6406
Q26.6094 41.75 29.6875 41.75" id="AndaleMono-30"/>
      </defs>
      <g style="fill:#555555;" transform="translate(15.821328125 319.30073125)scale(0.13 -0.13)">
       <use xlink:href="#AndaleMono-30"/>
       <use x="60.009765625" xlink:href="#AndaleMono-2e"/>
       <use x="120.01953125" xlink:href="#AndaleMono-30"/>
      </g>
     </g>
    </g>
    <g id="xtick_2">
     <g id="line2d_4">
      <path clip-path="url(#p50cafa3d47)" d="
M138.176 304.345
L138.176 25.3449" style="fill:none;stroke:#ffffff;stroke-linecap:square;stroke-width:0.5;"/>
     </g>
     <g id="line2d_5">
      <g>
       <use style="fill:#555555;stroke:#555555;stroke-width:0.5;" x="138.17578125" xlink:href="#m8bc147ca23" y="304.34495"/>
      </g>
     </g>
     <g id="line2d_6">
      <g>
       <use style="fill:#555555;stroke:#555555;stroke-width:0.5;" x="138.17578125" xlink:href="#m8bc147ca23" y="25.34495"/>
      </g>
     </g>
     <g id="text_2">
      <!-- 0.5 -->
      <defs>
       <path d="
M21.1875 41.1094
Q24.5156 42 27.6875 42
Q37.4531 42 43.1094 36.0156
Q48.7812 30.0312 48.7812 21.0938
Q48.7812 11.7188 42.1875 5.20312
Q35.5938 -1.3125 26.125 -1.3125
Q17.0938 -1.3125 10.9844 1.70312
L12.5938 8.5
Q19.2344 5.71875 26.3125 5.71875
Q32.625 5.71875 36.5 9.76562
Q40.375 13.8125 40.375 21.0938
Q40.375 27.9844 36.7188 31.6875
Q33.0625 35.4062 27.2969 35.4062
Q23.0938 35.4062 19 33.7969
L14.2031 35.9844
L14.2031 68.8906
L45.7031 68.8906
L45.7031 61.9219
L21.1875 61.9219
z
" id="AndaleMono-35"/>
      </defs>
      <g style="fill:#555555;" transform="translate(127.669140625 319.30073125)scale(0.13 -0.13)">
       <use xlink:href="#AndaleMono-30"/>
       <use x="60.009765625" xlink:href="#AndaleMono-2e"/>
       <use x="120.01953125" xlink:href="#AndaleMono-35"/>
      </g>
     </g>
    </g>
    <g id="xtick_3">
     <g id="line2d_7">
      <path clip-path="url(#p50cafa3d47)" d="
M249.776 304.345
L249.776 25.3449" style="fill:none;stroke:#ffffff;stroke-linecap:square;stroke-width:0.5;"/>
     </g>
     <g id="line2d_8">
      <g>
       <use style="fill:#555555;stroke:#555555;stroke-width:0.5;" x="249.77578125" xlink:href="#m8bc147ca23" y="304.34495"/>
      </g>
     </g>
     <g id="line2d_9">
      <g>
       <use style="fill:#555555;stroke:#555555;stroke-width:0.5;" x="249.77578125" xlink:href="#m8bc147ca23" y="25.34495"/>
      </g>
     </g>
     <g id="text_3">
      <!-- 1.0 -->
      <defs>
       <path d="
M49.7031 0
L13.4844 0
L13.4844 6.98438
L28.0781 6.98438
L28.0781 60.5
L14.3125 53.6094
L14.3125 61.625
L29.2031 69.2812
L36.0781 69.2812
L36.0781 6.98438
L49.7031 6.98438
z
" id="AndaleMono-31"/>
      </defs>
      <g style="fill:#555555;" transform="translate(239.431640625 319.30073125)scale(0.13 -0.13)">
       <use xlink:href="#AndaleMono-31"/>
       <use x="60.009765625" xlink:href="#AndaleMono-2e"/>
       <use x="120.01953125" xlink:href="#AndaleMono-30"/>
      </g>
     </g>
    </g>
    <g id="xtick_4">
     <g id="line2d_10">
      <path clip-path="url(#p50cafa3d47)" d="
M361.376 304.345
L361.376 25.3449" style="fill:none;stroke:#ffffff;stroke-linecap:square;stroke-width:0.5;"/>
     </g>
     <g id="line2d_11">
      <g>
       <use style="fill:#555555;stroke:#555555;stroke-width:0.5;" x="361.37578125" xlink:href="#m8bc147ca23" y="304.34495"/>
      </g>
     </g>
     <g id="line2d_12">
      <g>
       <use style="fill:#555555;stroke:#555555;stroke-width:0.5;" x="361.37578125" xlink:href="#m8bc147ca23" y="25.34495"/>
      </g>
     </g>
     <g id="text_4">
      <!-- 1.5 -->
      <g style="fill:#555555;" transform="translate(351.279453125 319.30073125)scale(0.13 -0.13)">
       <use xlink:href="#AndaleMono-31"/>
       <use x="60.009765625" xlink:href="#AndaleMono-2e"/>
       <use x="120.01953125" xlink:href="#AndaleMono-35"/>
      </g>
     </g>
    </g>
    <g id="xtick_5">
     <g id="line2d_13">
      <path clip-path="url(#p50cafa3d47)" d="
M472.976 304.345
L472.976 25.3449" style="fill:none;stroke:#ffffff;stroke-linecap:square;stroke-width:0.5;"/>
     </g>
     <g id="line2d_14">
      <g>
       <use style="fill:#555555;stroke:#555555;stroke-width:0.5;" x="472.97578125" xlink:href="#m8bc147ca23" y="304.34495"/>
      </g>
     </g>
     <g id="line2d_15">
      <g>
       <use style="fill:#555555;stroke:#555555;stroke-width:0.5;" x="472.97578125" xlink:href="#m8bc147ca23" y="25.34495"/>
      </g>
     </g>
     <g id="text_5">
      <!-- 2.0 -->
      <defs>
       <path d="
M47.9062 0
L10.0156 0
L10.0156 5.8125
Q24.4219 21.875 28.7188 27.3438
Q33.0156 32.8125 35.6875 38.8125
Q38.375 44.8281 38.375 50.7812
Q38.375 56.5469 34.875 59.8594
Q31.3906 63.1875 25.0938 63.1875
Q20.2656 63.1875 12.1094 60.2031
L10.9844 67.0938
Q18.3594 70.2188 26.4219 70.2188
Q35.6406 70.2188 41.2812 65.0156
Q46.9219 59.8125 46.9219 51.125
Q46.9219 44.9219 44.0156 38.8125
Q41.1094 32.7188 36.5625 27.0938
Q32.0312 21.4844 18.8906 6.98438
L47.9062 6.98438
z
" id="AndaleMono-32"/>
      </defs>
      <g style="fill:#555555;" transform="translate(462.406171875 319.30073125)scale(0.13 -0.13)">
       <use xlink:href="#AndaleMono-32"/>
       <use x="60.009765625" xlink:href="#AndaleMono-2e"/>
       <use x="120.01953125" xlink:href="#AndaleMono-30"/>
      </g>
     </g>
    </g>
    <g id="xtick_6">
     <g id="line2d_16">
      <path clip-path="url(#p50cafa3d47)" d="
M584.576 304.345
L584.576 25.3449" style="fill:none;stroke:#ffffff;stroke-linecap:square;stroke-width:0.5;"/>
     </g>
     <g id="line2d_17">
      <g>
       <use style="fill:#555555;stroke:#555555;stroke-width:0.5;" x="584.57578125" xlink:href="#m8bc147ca23" y="304.34495"/>
      </g>
     </g>
     <g id="line2d_18">
      <g>
       <use style="fill:#555555;stroke:#555555;stroke-width:0.5;" x="584.57578125" xlink:href="#m8bc147ca23" y="25.34495"/>
      </g>
     </g>
     <g id="text_6">
      <!-- 2.5 -->
      <g style="fill:#555555;" transform="translate(574.253984375 319.30073125)scale(0.13 -0.13)">
       <use xlink:href="#AndaleMono-32"/>
       <use x="60.009765625" xlink:href="#AndaleMono-2e"/>
       <use x="120.01953125" xlink:href="#AndaleMono-35"/>
      </g>
     </g>
    </g>
   </g>
   <g id="matplotlib.axis_2">
    <g id="ytick_1">
     <g id="line2d_19">
      <path clip-path="url(#p50cafa3d47)" d="
M26.5758 304.345
L584.576 304.345" style="fill:none;stroke:#ffffff;stroke-linecap:square;stroke-width:0.5;"/>
     </g>
     <g id="line2d_20">
      <g>
       <use style="fill:#555555;stroke:#555555;stroke-width:0.5;" x="26.57578125" xlink:href="#m8bc147ca23" y="304.34495"/>
      </g>
     </g>
     <g id="line2d_21">
      <g>
       <use style="fill:#555555;stroke:#555555;stroke-width:0.5;" x="584.57578125" xlink:href="#m8bc147ca23" y="304.34495"/>
      </g>
     </g>
     <g id="text_7">
      <!-- 0 -->
      <g style="fill:#555555;" transform="translate(14.6709375 307.514715625)scale(0.13 -0.13)">
       <use xlink:href="#AndaleMono-30"/>
      </g>
     </g>
    </g>
    <g id="ytick_2">
     <g id="line2d_22">
      <path clip-path="url(#p50cafa3d47)" d="
M26.5758 257.845
L584.576 257.845" style="fill:none;stroke:#ffffff;stroke-linecap:square;stroke-width:0.5;"/>
     </g>
     <g id="line2d_23">
      <g>
       <use style="fill:#555555;stroke:#555555;stroke-width:0.5;" x="26.57578125" xlink:href="#m8bc147ca23" y="257.84495"/>
      </g>
     </g>
     <g id="line2d_24">
      <g>
       <use style="fill:#555555;stroke:#555555;stroke-width:0.5;" x="584.57578125" xlink:href="#m8bc147ca23" y="257.84495"/>
      </g>
     </g>
     <g id="text_8">
      <!-- 5 -->
      <g style="fill:#555555;" transform="translate(15.6621875 261.014715625)scale(0.13 -0.13)">
       <use xlink:href="#AndaleMono-35"/>
      </g>
     </g>
    </g>
    <g id="ytick_3">
     <g id="line2d_25">
      <path clip-path="url(#p50cafa3d47)" d="
M26.5758 211.345
L584.576 211.345" style="fill:none;stroke:#ffffff;stroke-linecap:square;stroke-width:0.5;"/>
     </g>
     <g id="line2d_26">
      <g>
       <use style="fill:#555555;stroke:#555555;stroke-width:0.5;" x="26.57578125" xlink:href="#m8bc147ca23" y="211.34495"/>
      </g>
     </g>
     <g id="line2d_27">
      <g>
       <use style="fill:#555555;stroke:#555555;stroke-width:0.5;" x="584.57578125" xlink:href="#m8bc147ca23" y="211.34495"/>
      </g>
     </g>
     <g id="text_9">
      <!-- 10 -->
      <g style="fill:#555555;" transform="translate(7.68953125 214.514715625)scale(0.13 -0.13)">
       <use xlink:href="#AndaleMono-31"/>
       <use x="60.009765625" xlink:href="#AndaleMono-30"/>
      </g>
     </g>
    </g>
    <g id="ytick_4">
     <g id="line2d_28">
      <path clip-path="url(#p50cafa3d47)" d="
M26.5758 164.845
L584.576 164.845" style="fill:none;stroke:#ffffff;stroke-linecap:square;stroke-width:0.5;"/>
     </g>
     <g id="line2d_29">
      <g>
       <use style="fill:#555555;stroke:#555555;stroke-width:0.5;" x="26.57578125" xlink:href="#m8bc147ca23" y="164.84495"/>
      </g>
     </g>
     <g id="line2d_30">
      <g>
       <use style="fill:#555555;stroke:#555555;stroke-width:0.5;" x="584.57578125" xlink:href="#m8bc147ca23" y="164.84495"/>
      </g>
     </g>
     <g id="text_10">
      <!-- 15 -->
      <g style="fill:#555555;" transform="translate(8.18515625 168.014715625)scale(0.13 -0.13)">
       <use xlink:href="#AndaleMono-31"/>
       <use x="60.009765625" xlink:href="#AndaleMono-35"/>
      </g>
     </g>
    </g>
    <g id="ytick_5">
     <g id="line2d_31">
      <path clip-path="url(#p50cafa3d47)" d="
M26.5758 118.345
L584.576 118.345" style="fill:none;stroke:#ffffff;stroke-linecap:square;stroke-width:0.5;"/>
     </g>
     <g id="line2d_32">
      <g>
       <use style="fill:#555555;stroke:#555555;stroke-width:0.5;" x="26.57578125" xlink:href="#m8bc147ca23" y="118.34495"/>
      </g>
     </g>
     <g id="line2d_33">
      <g>
       <use style="fill:#555555;stroke:#555555;stroke-width:0.5;" x="584.57578125" xlink:href="#m8bc147ca23" y="118.34495"/>
      </g>
     </g>
     <g id="text_11">
      <!-- 20 -->
      <g style="fill:#555555;" transform="translate(7.23859375 121.514715625)scale(0.13 -0.13)">
       <use xlink:href="#AndaleMono-32"/>
       <use x="60.009765625" xlink:href="#AndaleMono-30"/>
      </g>
     </g>
    </g>
    <g id="ytick_6">
     <g id="line2d_34">
      <path clip-path="url(#p50cafa3d47)" d="
M26.5758 71.8449
L584.576 71.8449" style="fill:none;stroke:#ffffff;stroke-linecap:square;stroke-width:0.5;"/>
     </g>
     <g id="line2d_35">
      <g>
       <use style="fill:#555555;stroke:#555555;stroke-width:0.5;" x="26.57578125" xlink:href="#m8bc147ca23" y="71.84495"/>
      </g>
     </g>
     <g id="line2d_36">
      <g>
       <use style="fill:#555555;stroke:#555555;stroke-width:0.5;" x="584.57578125" xlink:href="#m8bc147ca23" y="71.84495"/>
      </g>
     </g>
     <g id="text_12">
      <!-- 25 -->
      <g style="fill:#555555;" transform="translate(7.73421875 75.014715625)scale(0.13 -0.13)">
       <use xlink:href="#AndaleMono-32"/>
       <use x="60.009765625" xlink:href="#AndaleMono-35"/>
      </g>
     </g>
    </g>
    <g id="ytick_7">
     <g id="line2d_37">
      <path clip-path="url(#p50cafa3d47)" d="
M26.5758 25.3449
L584.576 25.3449" style="fill:none;stroke:#ffffff;stroke-linecap:square;stroke-width:0.5;"/>
     </g>
     <g id="line2d_38">
      <g>
       <use style="fill:#555555;stroke:#555555;stroke-width:0.5;" x="26.57578125" xlink:href="#m8bc147ca23" y="25.34495"/>
      </g>
     </g>
     <g id="line2d_39">
      <g>
       <use style="fill:#555555;stroke:#555555;stroke-width:0.5;" x="584.57578125" xlink:href="#m8bc147ca23" y="25.34495"/>
      </g>
     </g>
     <g id="text_13">
      <!-- 30 -->
      <defs>
       <path d="
M34.2812 37.0156
Q40.5781 35.25 44.375 30.5781
Q48.1875 25.9219 48.1875 20.125
Q48.1875 11.0312 41.1094 4.85938
Q34.0312 -1.3125 24.4219 -1.3125
Q16.2188 -1.3125 9.71875 2.29688
L11.2812 8.89062
Q18.0625 5.71875 24.7031 5.71875
Q30.9531 5.71875 35.375 9.59375
Q39.7969 13.4844 39.7969 19.5781
Q39.7969 25.5938 35.0625 29.3438
Q30.3281 33.1094 22.5156 33.1094
L20.4062 33.1094
L20.4062 39.7031
L21 39.7031
Q28.5156 39.7031 33.3906 43.2344
Q38.2812 46.7812 38.2812 52.7812
Q38.2812 57.6719 34.7656 60.4219
Q31.25 63.1875 25.0938 63.1875
Q19.7812 63.1875 13.1875 60.2969
L12.1094 67.1875
Q18.75 70.2188 25.4844 70.2188
Q34.7188 70.2188 40.7031 65.3594
Q46.6875 60.5 46.6875 52.875
Q46.6875 47.6094 43.0469 43.0469
Q39.4062 38.4844 34.2812 37.3125
z
" id="AndaleMono-33"/>
      </defs>
      <g style="fill:#555555;" transform="translate(7.2 28.514715625)scale(0.13 -0.13)">
       <use xlink:href="#AndaleMono-33"/>
       <use x="60.009765625" xlink:href="#AndaleMono-30"/>
      </g>
     </g>
    </g>
   </g>
   <g id="patch_3">
    <path clip-path="url(#p50cafa3d47)" d="
M93.5358 304.345
L134.118 304.345
L134.118 257.845
L93.5358 257.845
z
" style="fill:#e24a33;stroke:#eeeeee;stroke-width:0.5;"/>
   </g>
   <g id="patch_4">
    <path clip-path="url(#p50cafa3d47)" d="
M134.118 304.345
L174.699 304.345
L174.699 211.345
L134.118 211.345
z
" style="fill:#e24a33;stroke:#eeeeee;stroke-width:0.5;"/>
   </g>
   <g id="patch_5">
    <path clip-path="url(#p50cafa3d47)" d="
M174.699 304.345
L215.281 304.345
L215.281 53.2449
L174.699 53.2449
z
" style="fill:#e24a33;stroke:#eeeeee;stroke-width:0.5;"/>
   </g>
   <g id="patch_6">
    <path clip-path="url(#p50cafa3d47)" d="
M215.281 304.345
L255.863 304.345
L255.863 81.1449
L215.281 81.1449
z
" style="fill:#e24a33;stroke:#eeeeee;stroke-width:0.5;"/>
   </g>
   <g id="patch_7">
    <path clip-path="url(#p50cafa3d47)" d="
M255.863 304.345
L296.445 304.345
L296.445 146.245
L255.863 146.245
z
" style="fill:#e24a33;stroke:#eeeeee;stroke-width:0.5;"/>
   </g>
   <g id="patch_8">
    <path clip-path="url(#p50cafa3d47)" d="
M296.445 304.345
L337.027 304.345
L337.027 295.045
L296.445 295.045
z
" style="fill:#e24a33;stroke:#eeeeee;stroke-width:0.5;"/>
   </g>
   <g id="patch_9">
    <path clip-path="url(#p50cafa3d47)" d="
M337.027 304.345
L377.609 304.345
L377.609 211.345
L337.027 211.345
z
" style="fill:#e24a33;stroke:#eeeeee;stroke-width:0.5;"/>
   </g>
   <g id="patch_10">
    <path clip-path="url(#p50cafa3d47)" d="
M377.609 304.345
L418.19 304.345
L418.19 192.745
L377.609 192.745
z
" style="fill:#e24a33;stroke:#eeeeee;stroke-width:0.5;"/>
   </g>
   <g id="patch_11">
    <path clip-path="url(#p50cafa3d47)" d="
M418.19 304.345
L458.772 304.345
L458.772 304.345
L418.19 304.345
z
" style="fill:#e24a33;stroke:#eeeeee;stroke-width:0.5;"/>
   </g>
   <g id="patch_12">
    <path clip-path="url(#p50cafa3d47)" d="
M458.772 304.345
L499.354 304.345
L499.354 239.245
L458.772 239.245
z
" style="fill:#e24a33;stroke:#eeeeee;stroke-width:0.5;"/>
   </g>
   <g id="patch_13">
    <path clip-path="url(#p50cafa3d47)" d="
M499.354 304.345
L539.936 304.345
L539.936 276.445
L499.354 276.445
z
" style="fill:#e24a33;stroke:#eeeeee;stroke-width:0.5;"/>
   </g>
   <g id="patch_14">
    <path d="
M26.5758 25.3449
L584.576 25.3449" style="fill:none;stroke:#eeeeee;"/>
   </g>
   <g id="patch_15">
    <path d="
M584.576 304.345
L584.576 25.3449" style="fill:none;stroke:#eeeeee;"/>
   </g>
   <g id="patch_16">
    <path d="
M26.5758 304.345
L584.576 304.345" style="fill:none;stroke:#eeeeee;"/>
   </g>
   <g id="patch_17">
    <path d="
M26.5758 304.345
L26.5758 25.3449" style="fill:none;stroke:#eeeeee;"/>
   </g>
   <g id="text_14">
    <!-- Peak_Size -->
    <defs>
     <path d="
M49.0312 0
L9.90625 0
L9.90625 4.10938
L38.9219 44.1875
L10.5938 44.1875
L10.5938 50.875
L49.0312 50.875
L49.0312 47.125
L20.0156 6.6875
L49.0312 6.6875
z
" id="AndaleMono-7a"/>
     <path d="
M50.9844 0
L43.4062 0
Q42.4844 3.07812 42.4844 8.20312
Q35.9844 -1.3125 24.8125 -1.3125
Q19.1406 -1.3125 14.8125 2.70312
Q10.5 6.73438 10.5 13.0938
Q10.5 16.8438 12.0156 19.7188
Q13.5312 22.6094 16.4531 24.5781
Q19.3906 26.5625 23.5781 27.7031
Q27.7812 28.8594 33.5469 29.2969
L42.0938 29.9844
L42.0938 32.4219
Q42.0938 45.5156 29.8906 45.5156
Q27 45.5156 22.5781 44.2656
Q18.1719 43.0156 14.9844 41.3125
L12.9844 46.7812
Q23.3906 52.0938 32.3281 52.0938
Q49.7031 52.0938 49.7031 33.6875
L49.7031 11.8125
Q49.7031 5.17188 50.9844 0
M42.0938 15.0938
L42.0938 24.3125
Q31.7812 23.3906 27.9531 22.5781
Q24.125 21.7812 21.3125 19.5781
Q18.5 17.3906 18.5 13.625
Q18.5 10.2031 20.8906 8.09375
Q23.2969 6 27 6
Q31.0625 6 35.0625 8.42188
Q39.0625 10.8438 42.0938 15.0938" id="AndaleMono-61"/>
     <path d="
M51.2188 25.2031
L16.3125 25.2031
Q16.3125 16.5469 21.3125 10.9375
Q26.3125 5.32812 33.5938 5.32812
Q40.5312 5.32812 47.9062 7.8125
L49.2188 1.70312
Q42.4844 -1.3125 33.5 -1.3125
Q22.1719 -1.3125 15.2344 5.95312
Q8.29688 13.2344 8.29688 25.5938
Q8.29688 37.7031 14.5156 44.8906
Q20.75 52.0938 30.6094 52.0938
Q39.4062 52.0938 45.3125 45.4062
Q51.2188 38.7188 51.2188 27.5938
z

M42.9219 31.3906
Q42.9219 37.3594 39.2031 41.4375
Q35.5 45.5156 30.9062 45.5156
Q25 45.5156 21.1094 41.6094
Q17.2344 37.7031 16.7969 31.3906
z
" id="AndaleMono-65"/>
     <path d="
M60.0156 -21.7812
L0 -21.7812
L0 -15.375
L60.0156 -15.375
z
" id="AndaleMono-5f"/>
     <path d="
M33.2969 70.125
Q35.4531 70.125 36.9688 68.5781
Q38.4844 67.0469 38.4844 64.8906
Q38.4844 62.6406 36.9844 61.125
Q35.5 59.625 33.2969 59.625
Q31.2969 59.625 29.75 61.2031
Q28.2188 62.7969 28.2188 64.8906
Q28.2188 67 29.75 68.5625
Q31.2969 70.125 33.2969 70.125
M37.0156 0
L29.3906 0
L29.3906 44.2812
L14.4062 44.2812
L14.4062 50.875
L37.0156 50.875
z
" id="AndaleMono-69"/>
     <path d="
M54.6875 0
L44.6719 0
L23.0938 25.2969
L18.1094 21
L18.1094 0
L10.5 0
L10.5 68.8906
L18.1094 68.8906
L18.1094 29.3906
L42 50.875
L51.7031 50.875
L28.5156 30.0781
z
" id="AndaleMono-6b"/>
     <path d="
M44.6719 61.2812
Q38.5312 63.375 33.0156 63.375
Q26.7656 63.375 22.8281 60.5156
Q18.8906 57.6719 18.8906 52.3906
Q18.8906 46.1406 29.2031 41.4062
Q36.8125 37.8906 39.2812 36.5156
Q41.75 35.1562 44.2812 32.7656
Q46.8281 30.375 48.3594 27.125
Q49.9062 23.875 49.9062 19.8281
Q49.9062 9.76562 43.1406 4.21875
Q36.375 -1.3125 27.2031 -1.3125
Q18.3125 -1.3125 11.625 2.20312
L13.2812 9.07812
Q21.1406 5.51562 27 5.51562
Q33.8438 5.51562 37.9688 9.04688
Q42.0938 12.5938 42.0938 18.7969
Q42.0938 23.3906 39.4062 26.5781
Q36.7188 29.7812 29.5 33.1094
Q22.0781 36.5312 19.8906 37.7656
Q17.7188 39.0156 15.5625 41.2031
Q13.4219 43.4062 12.25 46.1406
Q11.0781 48.875 11.0781 52.0938
Q11.0781 60.6406 17.2344 65.4219
Q23.3906 70.2188 32.8125 70.2188
Q39.7031 70.2188 46.4844 68.1094
z
" id="AndaleMono-53"/>
     <path d="
M12.5 68.8906
L29.9844 68.8906
Q39.8906 68.8906 45.8438 63.9062
Q51.8125 58.9375 51.8125 50.2031
Q51.8125 41.4062 45.875 36.1562
Q39.9375 30.9062 30.3281 30.9062
L20.5156 30.9062
L20.5156 0
L12.5 0
z

M20.5156 37.8906
L29.2031 37.8906
Q43.3125 37.8906 43.3125 49.7031
Q43.3125 55.1719 39.4688 58.5469
Q35.6406 61.9219 29.5938 61.9219
L20.5156 61.9219
z
" id="AndaleMono-50"/>
    </defs>
    <g transform="translate(257.01200625 20.34495)scale(0.1872 -0.1872)">
     <use xlink:href="#AndaleMono-50"/>
     <use x="60.009765625" xlink:href="#AndaleMono-65"/>
     <use x="120.01953125" xlink:href="#AndaleMono-61"/>
     <use x="180.029296875" xlink:href="#AndaleMono-6b"/>
     <use x="240.0390625" xlink:href="#AndaleMono-5f"/>
     <use x="300.048828125" xlink:href="#AndaleMono-53"/>
     <use x="360.05859375" xlink:href="#AndaleMono-69"/>
     <use x="420.068359375" xlink:href="#AndaleMono-7a"/>
     <use x="480.078125" xlink:href="#AndaleMono-65"/>
    </g>
   </g>
  </g>
 </g>
 <defs>
  <clipPath id="p50cafa3d47">
   <rect height="279.0" width="558.0" x="26.57578125" y="25.34495"/>
  </clipPath>
 </defs>
</svg>
