<?xml version="1.0" encoding="utf-8" standalone="no"?>
<!DOCTYPE svg PUBLIC "-//W3C//DTD SVG 1.1//EN"
  "http://www.w3.org/Graphics/SVG/1.1/DTD/svg11.dtd">
<!-- Created with matplotlib (http://matplotlib.org/) -->
<svg height="329pt" version="1.1" viewBox="0 0 602 329" width="602pt" xmlns="http://www.w3.org/2000/svg" xmlns:xlink="http://www.w3.org/1999/xlink">
 <defs>
  <style type="text/css">
*{stroke-linecap:butt;stroke-linejoin:round;}
  </style>
 </defs>
 <g id="figure_1">
  <g id="patch_1">
   <path d="
M0 329.117
L602.326 329.117
L602.326 0
L0 0
z
" style="fill:#ffffff;"/>
  </g>
  <g id="axes_1">
   <g id="patch_2">
    <path d="
M26.5372 304.345
L584.537 304.345
L584.537 25.3449
L26.5372 25.3449
z
" style="fill:#bcbcbc;"/>
   </g>
   <g id="matplotlib.axis_1">
    <g id="xtick_1">
     <g id="line2d_1">
      <path clip-path="url(#pf395a14827)" d="
M26.5372 304.345
L26.5372 25.3449" style="fill:none;stroke:#ffffff;stroke-linecap:square;stroke-width:0.5;"/>
     </g>
     <g id="line2d_2">
      <defs>
       <path d="
M0 0
L0 0" id="m8bc147ca23" style="stroke:#555555;stroke-width:0.5;"/>
      </defs>
      <g>
       <use style="fill:#555555;stroke:#555555;stroke-width:0.5;" x="26.5371875" xlink:href="#m8bc147ca23" y="304.34495"/>
      </g>
     </g>
     <g id="line2d_3">
      <g>
       <use style="fill:#555555;stroke:#555555;stroke-width:0.5;" x="26.5371875" xlink:href="#m8bc147ca23" y="25.34495"/>
      </g>
     </g>
     <g id="text_1">
      <!-- 0.5 -->
      <defs>
       <path d="
M21.1875 41.1094
Q24.5156 42 27.6875 42
Q37.4531 42 43.1094 36.0156
Q48.7812 30.0312 48.7812 21.0938
Q48.7812 11.7188 42.1875 5.20312
Q35.5938 -1.3125 26.125 -1.3125
Q17.0938 -1.3125 10.9844 1.70312
L12.5938 8.5
Q19.2344 5.71875 26.3125 5.71875
Q32.625 5.71875 36.5 9.76562
Q40.375 13.8125 40.375 21.0938
Q40.375 27.9844 36.7188 31.6875
Q33.0625 35.4062 27.2969 35.4062
Q23.0938 35.4062 19 33.7969
L14.2031 35.9844
L14.2031 68.8906
L45.7031 68.8906
L45.7031 61.9219
L21.1875 61.9219
z
" id="AndaleMono-35"/>
       <path d="
M29.6875 11.1875
Q32.2812 11.1875 34.0312 9.42188
Q35.7969 7.67188 35.7969 5.07812
Q35.7969 2.4375 34.0156 0.5625
Q32.2344 -1.3125 29.6875 -1.3125
Q27.2031 -1.3125 25.4375 0.5625
Q23.6875 2.4375 23.6875 5.07812
Q23.6875 7.71875 25.4219 9.45312
Q27.1562 11.1875 29.6875 11.1875" id="AndaleMono-2e"/>
       <path d="
M29.8906 70.2188
Q40.8281 70.2188 46.7031 60.8125
Q52.5938 51.4219 52.5938 34.4219
Q52.5938 17.9688 46.875 8.32812
Q41.1562 -1.3125 29.8906 -1.3125
Q19 -1.3125 13.0781 8.0625
Q7.17188 17.4375 7.17188 34.4219
Q7.17188 50.9219 12.9062 60.5625
Q18.6562 70.2188 29.8906 70.2188
M29.8906 5.71875
Q37.1094 5.71875 40.5938 12.5781
Q44.0938 19.4375 44.0938 34.4219
Q44.0938 49.4688 40.5938 56.2812
Q37.1094 63.0938 29.8906 63.0938
Q22.75 63.0938 19.2344 56.1094
Q15.7188 49.125 15.7188 34.4219
Q15.7188 19.5312 19.2031 12.625
Q22.7031 5.71875 29.8906 5.71875
M29.6875 41.75
Q32.7656 41.75 34.8906 39.625
Q37.0156 37.5 37.0156 34.4219
Q37.0156 31.25 34.8594 28.9688
Q32.7188 26.7031 29.6875 26.7031
Q26.7031 26.7031 24.5781 28.9688
Q22.4688 31.25 22.4688 34.4219
Q22.4688 37.5469 24.5312 39.6406
Q26.6094 41.75 29.6875 41.75" id="AndaleMono-30"/>
      </defs>
      <g style="fill:#555555;" transform="translate(16.030546875 319.30073125)scale(0.13 -0.13)">
       <use xlink:href="#AndaleMono-30"/>
       <use x="60.009765625" xlink:href="#AndaleMono-2e"/>
       <use x="120.01953125" xlink:href="#AndaleMono-35"/>
      </g>
     </g>
    </g>
    <g id="xtick_2">
     <g id="line2d_4">
      <path clip-path="url(#pf395a14827)" d="
M138.137 304.345
L138.137 25.3449" style="fill:none;stroke:#ffffff;stroke-linecap:square;stroke-width:0.5;"/>
     </g>
     <g id="line2d_5">
      <g>
       <use style="fill:#555555;stroke:#555555;stroke-width:0.5;" x="138.1371875" xlink:href="#m8bc147ca23" y="304.34495"/>
      </g>
     </g>
     <g id="line2d_6">
      <g>
       <use style="fill:#555555;stroke:#555555;stroke-width:0.5;" x="138.1371875" xlink:href="#m8bc147ca23" y="25.34495"/>
      </g>
     </g>
     <g id="text_2">
      <!-- 1.0 -->
      <defs>
       <path d="
M49.7031 0
L13.4844 0
L13.4844 6.98438
L28.0781 6.98438
L28.0781 60.5
L14.3125 53.6094
L14.3125 61.625
L29.2031 69.2812
L36.0781 69.2812
L36.0781 6.98438
L49.7031 6.98438
z
" id="AndaleMono-31"/>
      </defs>
      <g style="fill:#555555;" transform="translate(127.793046875 319.30073125)scale(0.13 -0.13)">
       <use xlink:href="#AndaleMono-31"/>
       <use x="60.009765625" xlink:href="#AndaleMono-2e"/>
       <use x="120.01953125" xlink:href="#AndaleMono-30"/>
      </g>
     </g>
    </g>
    <g id="xtick_3">
     <g id="line2d_7">
      <path clip-path="url(#pf395a14827)" d="
M249.737 304.345
L249.737 25.3449" style="fill:none;stroke:#ffffff;stroke-linecap:square;stroke-width:0.5;"/>
     </g>
     <g id="line2d_8">
      <g>
       <use style="fill:#555555;stroke:#555555;stroke-width:0.5;" x="249.7371875" xlink:href="#m8bc147ca23" y="304.34495"/>
      </g>
     </g>
     <g id="line2d_9">
      <g>
       <use style="fill:#555555;stroke:#555555;stroke-width:0.5;" x="249.7371875" xlink:href="#m8bc147ca23" y="25.34495"/>
      </g>
     </g>
     <g id="text_3">
      <!-- 1.5 -->
      <g style="fill:#555555;" transform="translate(239.640859375 319.30073125)scale(0.13 -0.13)">
       <use xlink:href="#AndaleMono-31"/>
       <use x="60.009765625" xlink:href="#AndaleMono-2e"/>
       <use x="120.01953125" xlink:href="#AndaleMono-35"/>
      </g>
     </g>
    </g>
    <g id="xtick_4">
     <g id="line2d_10">
      <path clip-path="url(#pf395a14827)" d="
M361.337 304.345
L361.337 25.3449" style="fill:none;stroke:#ffffff;stroke-linecap:square;stroke-width:0.5;"/>
     </g>
     <g id="line2d_11">
      <g>
       <use style="fill:#555555;stroke:#555555;stroke-width:0.5;" x="361.3371875" xlink:href="#m8bc147ca23" y="304.34495"/>
      </g>
     </g>
     <g id="line2d_12">
      <g>
       <use style="fill:#555555;stroke:#555555;stroke-width:0.5;" x="361.3371875" xlink:href="#m8bc147ca23" y="25.34495"/>
      </g>
     </g>
     <g id="text_4">
      <!-- 2.0 -->
      <defs>
       <path d="
M47.9062 0
L10.0156 0
L10.0156 5.8125
Q24.4219 21.875 28.7188 27.3438
Q33.0156 32.8125 35.6875 38.8125
Q38.375 44.8281 38.375 50.7812
Q38.375 56.5469 34.875 59.8594
Q31.3906 63.1875 25.0938 63.1875
Q20.2656 63.1875 12.1094 60.2031
L10.9844 67.0938
Q18.3594 70.2188 26.4219 70.2188
Q35.6406 70.2188 41.2812 65.0156
Q46.9219 59.8125 46.9219 51.125
Q46.9219 44.9219 44.0156 38.8125
Q41.1094 32.7188 36.5625 27.0938
Q32.0312 21.4844 18.8906 6.98438
L47.9062 6.98438
z
" id="AndaleMono-32"/>
      </defs>
      <g style="fill:#555555;" transform="translate(350.767578125 319.30073125)scale(0.13 -0.13)">
       <use xlink:href="#AndaleMono-32"/>
       <use x="60.009765625" xlink:href="#AndaleMono-2e"/>
       <use x="120.01953125" xlink:href="#AndaleMono-30"/>
      </g>
     </g>
    </g>
    <g id="xtick_5">
     <g id="line2d_13">
      <path clip-path="url(#pf395a14827)" d="
M472.937 304.345
L472.937 25.3449" style="fill:none;stroke:#ffffff;stroke-linecap:square;stroke-width:0.5;"/>
     </g>
     <g id="line2d_14">
      <g>
       <use style="fill:#555555;stroke:#555555;stroke-width:0.5;" x="472.9371875" xlink:href="#m8bc147ca23" y="304.34495"/>
      </g>
     </g>
     <g id="line2d_15">
      <g>
       <use style="fill:#555555;stroke:#555555;stroke-width:0.5;" x="472.9371875" xlink:href="#m8bc147ca23" y="25.34495"/>
      </g>
     </g>
     <g id="text_5">
      <!-- 2.5 -->
      <g style="fill:#555555;" transform="translate(462.615390625 319.30073125)scale(0.13 -0.13)">
       <use xlink:href="#AndaleMono-32"/>
       <use x="60.009765625" xlink:href="#AndaleMono-2e"/>
       <use x="120.01953125" xlink:href="#AndaleMono-35"/>
      </g>
     </g>
    </g>
    <g id="xtick_6">
     <g id="line2d_16">
      <path clip-path="url(#pf395a14827)" d="
M584.537 304.345
L584.537 25.3449" style="fill:none;stroke:#ffffff;stroke-linecap:square;stroke-width:0.5;"/>
     </g>
     <g id="line2d_17">
      <g>
       <use style="fill:#555555;stroke:#555555;stroke-width:0.5;" x="584.5371875" xlink:href="#m8bc147ca23" y="304.34495"/>
      </g>
     </g>
     <g id="line2d_18">
      <g>
       <use style="fill:#555555;stroke:#555555;stroke-width:0.5;" x="584.5371875" xlink:href="#m8bc147ca23" y="25.34495"/>
      </g>
     </g>
     <g id="text_6">
      <!-- 3.0 -->
      <defs>
       <path d="
M34.2812 37.0156
Q40.5781 35.25 44.375 30.5781
Q48.1875 25.9219 48.1875 20.125
Q48.1875 11.0312 41.1094 4.85938
Q34.0312 -1.3125 24.4219 -1.3125
Q16.2188 -1.3125 9.71875 2.29688
L11.2812 8.89062
Q18.0625 5.71875 24.7031 5.71875
Q30.9531 5.71875 35.375 9.59375
Q39.7969 13.4844 39.7969 19.5781
Q39.7969 25.5938 35.0625 29.3438
Q30.3281 33.1094 22.5156 33.1094
L20.4062 33.1094
L20.4062 39.7031
L21 39.7031
Q28.5156 39.7031 33.3906 43.2344
Q38.2812 46.7812 38.2812 52.7812
Q38.2812 57.6719 34.7656 60.4219
Q31.25 63.1875 25.0938 63.1875
Q19.7812 63.1875 13.1875 60.2969
L12.1094 67.1875
Q18.75 70.2188 25.4844 70.2188
Q34.7188 70.2188 40.7031 65.3594
Q46.6875 60.5 46.6875 52.875
Q46.6875 47.6094 43.0469 43.0469
Q39.4062 38.4844 34.2812 37.3125
z
" id="AndaleMono-33"/>
      </defs>
      <g style="fill:#555555;" transform="translate(573.94828125 319.30073125)scale(0.13 -0.13)">
       <use xlink:href="#AndaleMono-33"/>
       <use x="60.009765625" xlink:href="#AndaleMono-2e"/>
       <use x="120.01953125" xlink:href="#AndaleMono-30"/>
      </g>
     </g>
    </g>
   </g>
   <g id="matplotlib.axis_2">
    <g id="ytick_1">
     <g id="line2d_19">
      <path clip-path="url(#pf395a14827)" d="
M26.5372 304.345
L584.537 304.345" style="fill:none;stroke:#ffffff;stroke-linecap:square;stroke-width:0.5;"/>
     </g>
     <g id="line2d_20">
      <g>
       <use style="fill:#555555;stroke:#555555;stroke-width:0.5;" x="26.5371875" xlink:href="#m8bc147ca23" y="304.34495"/>
      </g>
     </g>
     <g id="line2d_21">
      <g>
       <use style="fill:#555555;stroke:#555555;stroke-width:0.5;" x="584.5371875" xlink:href="#m8bc147ca23" y="304.34495"/>
      </g>
     </g>
     <g id="text_7">
      <!-- 0 -->
      <g style="fill:#555555;" transform="translate(14.63234375 307.514715625)scale(0.13 -0.13)">
       <use xlink:href="#AndaleMono-30"/>
      </g>
     </g>
    </g>
    <g id="ytick_2">
     <g id="line2d_22">
      <path clip-path="url(#pf395a14827)" d="
M26.5372 248.545
L584.537 248.545" style="fill:none;stroke:#ffffff;stroke-linecap:square;stroke-width:0.5;"/>
     </g>
     <g id="line2d_23">
      <g>
       <use style="fill:#555555;stroke:#555555;stroke-width:0.5;" x="26.5371875" xlink:href="#m8bc147ca23" y="248.54495"/>
      </g>
     </g>
     <g id="line2d_24">
      <g>
       <use style="fill:#555555;stroke:#555555;stroke-width:0.5;" x="584.5371875" xlink:href="#m8bc147ca23" y="248.54495"/>
      </g>
     </g>
     <g id="text_8">
      <!-- 5 -->
      <g style="fill:#555555;" transform="translate(15.62359375 251.714715625)scale(0.13 -0.13)">
       <use xlink:href="#AndaleMono-35"/>
      </g>
     </g>
    </g>
    <g id="ytick_3">
     <g id="line2d_25">
      <path clip-path="url(#pf395a14827)" d="
M26.5372 192.745
L584.537 192.745" style="fill:none;stroke:#ffffff;stroke-linecap:square;stroke-width:0.5;"/>
     </g>
     <g id="line2d_26">
      <g>
       <use style="fill:#555555;stroke:#555555;stroke-width:0.5;" x="26.5371875" xlink:href="#m8bc147ca23" y="192.74495"/>
      </g>
     </g>
     <g id="line2d_27">
      <g>
       <use style="fill:#555555;stroke:#555555;stroke-width:0.5;" x="584.5371875" xlink:href="#m8bc147ca23" y="192.74495"/>
      </g>
     </g>
     <g id="text_9">
      <!-- 10 -->
      <g style="fill:#555555;" transform="translate(7.6509375 195.914715625)scale(0.13 -0.13)">
       <use xlink:href="#AndaleMono-31"/>
       <use x="60.009765625" xlink:href="#AndaleMono-30"/>
      </g>
     </g>
    </g>
    <g id="ytick_4">
     <g id="line2d_28">
      <path clip-path="url(#pf395a14827)" d="
M26.5372 136.945
L584.537 136.945" style="fill:none;stroke:#ffffff;stroke-linecap:square;stroke-width:0.5;"/>
     </g>
     <g id="line2d_29">
      <g>
       <use style="fill:#555555;stroke:#555555;stroke-width:0.5;" x="26.5371875" xlink:href="#m8bc147ca23" y="136.94495"/>
      </g>
     </g>
     <g id="line2d_30">
      <g>
       <use style="fill:#555555;stroke:#555555;stroke-width:0.5;" x="584.5371875" xlink:href="#m8bc147ca23" y="136.94495"/>
      </g>
     </g>
     <g id="text_10">
      <!-- 15 -->
      <g style="fill:#555555;" transform="translate(8.1465625 140.114715625)scale(0.13 -0.13)">
       <use xlink:href="#AndaleMono-31"/>
       <use x="60.009765625" xlink:href="#AndaleMono-35"/>
      </g>
     </g>
    </g>
    <g id="ytick_5">
     <g id="line2d_31">
      <path clip-path="url(#pf395a14827)" d="
M26.5372 81.1449
L584.537 81.1449" style="fill:none;stroke:#ffffff;stroke-linecap:square;stroke-width:0.5;"/>
     </g>
     <g id="line2d_32">
      <g>
       <use style="fill:#555555;stroke:#555555;stroke-width:0.5;" x="26.5371875" xlink:href="#m8bc147ca23" y="81.14495"/>
      </g>
     </g>
     <g id="line2d_33">
      <g>
       <use style="fill:#555555;stroke:#555555;stroke-width:0.5;" x="584.5371875" xlink:href="#m8bc147ca23" y="81.14495"/>
      </g>
     </g>
     <g id="text_11">
      <!-- 20 -->
      <g style="fill:#555555;" transform="translate(7.2 84.314715625)scale(0.13 -0.13)">
       <use xlink:href="#AndaleMono-32"/>
       <use x="60.009765625" xlink:href="#AndaleMono-30"/>
      </g>
     </g>
    </g>
    <g id="ytick_6">
     <g id="line2d_34">
      <path clip-path="url(#pf395a14827)" d="
M26.5372 25.3449
L584.537 25.3449" style="fill:none;stroke:#ffffff;stroke-linecap:square;stroke-width:0.5;"/>
     </g>
     <g id="line2d_35">
      <g>
       <use style="fill:#555555;stroke:#555555;stroke-width:0.5;" x="26.5371875" xlink:href="#m8bc147ca23" y="25.34495"/>
      </g>
     </g>
     <g id="line2d_36">
      <g>
       <use style="fill:#555555;stroke:#555555;stroke-width:0.5;" x="584.5371875" xlink:href="#m8bc147ca23" y="25.34495"/>
      </g>
     </g>
     <g id="text_12">
      <!-- 25 -->
      <g style="fill:#555555;" transform="translate(7.695625 28.514715625)scale(0.13 -0.13)">
       <use xlink:href="#AndaleMono-32"/>
       <use x="60.009765625" xlink:href="#AndaleMono-35"/>
      </g>
     </g>
    </g>
   </g>
   <g id="patch_3">
    <path clip-path="url(#pf395a14827)" d="
M115.817 304.345
L158.428 304.345
L158.428 203.905
L115.817 203.905
z
" style="fill:#e24a33;stroke:#eeeeee;stroke-width:0.5;"/>
   </g>
   <g id="patch_4">
    <path clip-path="url(#pf395a14827)" d="
M158.428 304.345
L201.039 304.345
L201.039 92.3049
L158.428 92.3049
z
" style="fill:#e24a33;stroke:#eeeeee;stroke-width:0.5;"/>
   </g>
   <g id="patch_5">
    <path clip-path="url(#pf395a14827)" d="
M201.039 304.345
L243.65 304.345
L243.65 136.945
L201.039 136.945
z
" style="fill:#e24a33;stroke:#eeeeee;stroke-width:0.5;"/>
   </g>
   <g id="patch_6">
    <path clip-path="url(#pf395a14827)" d="
M243.65 304.345
L286.261 304.345
L286.261 125.785
L243.65 125.785
z
" style="fill:#e24a33;stroke:#eeeeee;stroke-width:0.5;"/>
   </g>
   <g id="patch_7">
    <path clip-path="url(#pf395a14827)" d="
M286.261 304.345
L328.872 304.345
L328.872 69.9849
L286.261 69.9849
z
" style="fill:#e24a33;stroke:#eeeeee;stroke-width:0.5;"/>
   </g>
   <g id="patch_8">
    <path clip-path="url(#pf395a14827)" d="
M328.872 304.345
L371.483 304.345
L371.483 170.425
L328.872 170.425
z
" style="fill:#e24a33;stroke:#eeeeee;stroke-width:0.5;"/>
   </g>
   <g id="patch_9">
    <path clip-path="url(#pf395a14827)" d="
M371.483 304.345
L414.094 304.345
L414.094 270.865
L371.483 270.865
z
" style="fill:#e24a33;stroke:#eeeeee;stroke-width:0.5;"/>
   </g>
   <g id="patch_10">
    <path clip-path="url(#pf395a14827)" d="
M414.094 304.345
L456.704 304.345
L456.704 203.905
L414.094 203.905
z
" style="fill:#e24a33;stroke:#eeeeee;stroke-width:0.5;"/>
   </g>
   <g id="patch_11">
    <path clip-path="url(#pf395a14827)" d="
M456.704 304.345
L499.315 304.345
L499.315 270.865
L456.704 270.865
z
" style="fill:#e24a33;stroke:#eeeeee;stroke-width:0.5;"/>
   </g>
   <g id="patch_12">
    <path clip-path="url(#pf395a14827)" d="
M499.315 304.345
L541.926 304.345
L541.926 248.545
L499.315 248.545
z
" style="fill:#e24a33;stroke:#eeeeee;stroke-width:0.5;"/>
   </g>
   <g id="patch_13">
    <path clip-path="url(#pf395a14827)" d="
M541.926 304.345
L584.537 304.345
L584.537 259.705
L541.926 259.705
z
" style="fill:#e24a33;stroke:#eeeeee;stroke-width:0.5;"/>
   </g>
   <g id="patch_14">
    <path d="
M26.5372 25.3449
L584.537 25.3449" style="fill:none;stroke:#eeeeee;"/>
   </g>
   <g id="patch_15">
    <path d="
M584.537 304.345
L584.537 25.3449" style="fill:none;stroke:#eeeeee;"/>
   </g>
   <g id="patch_16">
    <path d="
M26.5372 304.345
L584.537 304.345" style="fill:none;stroke:#eeeeee;"/>
   </g>
   <g id="patch_17">
    <path d="
M26.5372 304.345
L26.5372 25.3449" style="fill:none;stroke:#eeeeee;"/>
   </g>
   <g id="text_13">
    <!-- Suppression_Size -->
    <defs>
     <path d="
M18.1094 44.2812
Q20.6562 47.7969 24.9688 49.9375
Q29.2969 52.0938 34.0781 52.0938
Q42.875 52.0938 47.875 44.8438
Q52.875 37.5938 52.875 25.9844
Q52.875 14.2656 47.625 6.46875
Q42.3906 -1.3125 33.5 -1.3125
Q28.7656 -1.3125 24.6406 1.04688
Q20.5156 3.42188 18.1094 7.32812
L18.1094 -20.125
L10.5 -20.125
L10.5 50.875
L18.1094 50.875
z

M18.1094 36.7188
L18.1094 15.5781
Q20.2656 11.2812 23.9219 8.39062
Q27.5938 5.51562 31.5 5.51562
Q37.6406 5.51562 41.2812 11.2812
Q44.9219 17.0469 44.9219 25.5938
Q44.9219 34.375 41.4531 39.9375
Q37.9844 45.5156 31.7812 45.5156
Q23.7344 45.5156 18.1094 36.7188" id="AndaleMono-70"/>
     <path d="
M44.3906 43.6094
Q37.9844 45.7031 32.3281 45.7031
Q26.125 45.7031 22.5 43.625
Q18.8906 41.5469 18.8906 38.0938
Q18.8906 35.8906 20.5469 34.25
Q22.2188 32.625 27.2031 31.2031
L34.4688 29.1094
Q39.5 27.6875 42.6719 25.7031
Q45.8438 23.7344 47.4375 20.9219
Q49.0312 18.1094 49.0312 14.4062
Q49.0312 7.125 42.9219 2.90625
Q36.8125 -1.3125 27.3906 -1.3125
Q18.0156 -1.3125 11.9219 1.51562
L13.375 8.10938
Q19.7812 5.07812 27.0938 5.07812
Q33.4531 5.07812 37.4219 7.4375
Q41.4062 9.8125 41.4062 13.7188
Q41.4062 16.3594 39.4219 18.4375
Q37.4531 20.5156 30.125 22.75
Q24.2188 24.5625 21.4375 25.4688
Q18.6562 26.375 16.2656 28.125
Q13.875 29.8906 12.625 32.3281
Q11.375 34.7656 11.375 37.7969
Q11.375 44.3906 17.1406 48.2344
Q22.9062 52.0938 32.4219 52.0938
Q38.5781 52.0938 46.0938 50
z
" id="AndaleMono-73"/>
     <path d="
M50.4844 49.5156
L47.4062 42.1875
Q42.3906 44.3906 38.7188 44.3906
Q35.3594 44.3906 32.125 42.4531
Q28.9062 40.5312 26.1875 36.9375
Q23.4844 33.3438 23.4844 32.9062
L23.4844 0
L15.9219 0
L15.9219 50.875
L23.4844 50.875
L23.4844 40.5781
Q29.5938 52.0938 39.3125 52.0938
Q45.0625 52.0938 50.4844 49.5156" id="AndaleMono-72"/>
     <path d="
M49.6094 0
L42 0
L42 7.51562
Q33.7969 -1.21875 24.7031 -1.21875
Q10.4062 -1.21875 10.4062 16.1094
L10.4062 50.875
L18.0156 50.875
L18.0156 18.3125
Q18.0156 11.8125 20.0625 8.60938
Q22.125 5.42188 27 5.42188
Q33.9844 5.42188 42 14.1094
L42 50.875
L49.6094 50.875
z
" id="AndaleMono-75"/>
     <path d="
M51.2188 25.2031
L16.3125 25.2031
Q16.3125 16.5469 21.3125 10.9375
Q26.3125 5.32812 33.5938 5.32812
Q40.5312 5.32812 47.9062 7.8125
L49.2188 1.70312
Q42.4844 -1.3125 33.5 -1.3125
Q22.1719 -1.3125 15.2344 5.95312
Q8.29688 13.2344 8.29688 25.5938
Q8.29688 37.7031 14.5156 44.8906
Q20.75 52.0938 30.6094 52.0938
Q39.4062 52.0938 45.3125 45.4062
Q51.2188 38.7188 51.2188 27.5938
z

M42.9219 31.3906
Q42.9219 37.3594 39.2031 41.4375
Q35.5 45.5156 30.9062 45.5156
Q25 45.5156 21.1094 41.6094
Q17.2344 37.7031 16.7969 31.3906
z
" id="AndaleMono-65"/>
     <path d="
M60.0156 -21.7812
L0 -21.7812
L0 -15.375
L60.0156 -15.375
z
" id="AndaleMono-5f"/>
     <path d="
M33.2969 70.125
Q35.4531 70.125 36.9688 68.5781
Q38.4844 67.0469 38.4844 64.8906
Q38.4844 62.6406 36.9844 61.125
Q35.5 59.625 33.2969 59.625
Q31.2969 59.625 29.75 61.2031
Q28.2188 62.7969 28.2188 64.8906
Q28.2188 67 29.75 68.5625
Q31.2969 70.125 33.2969 70.125
M37.0156 0
L29.3906 0
L29.3906 44.2812
L14.4062 44.2812
L14.4062 50.875
L37.0156 50.875
z
" id="AndaleMono-69"/>
     <path d="
M49.0312 0
L9.90625 0
L9.90625 4.10938
L38.9219 44.1875
L10.5938 44.1875
L10.5938 50.875
L49.0312 50.875
L49.0312 47.125
L20.0156 6.6875
L49.0312 6.6875
z
" id="AndaleMono-7a"/>
     <path d="
M29.9844 52.0938
Q40.4844 52.0938 46.6719 44.7656
Q52.875 37.4531 52.875 25.4844
Q52.875 13.4219 46.6719 6.04688
Q40.4844 -1.3125 29.9844 -1.3125
Q19.4375 -1.3125 13.25 6.03125
Q7.07812 13.375 7.07812 25.4844
Q7.07812 37.5 13.2812 44.7969
Q19.4844 52.0938 29.9844 52.0938
M29.9844 5.32812
Q36.9219 5.32812 40.9219 11.1875
Q44.9219 17.0469 44.9219 25.3906
Q44.9219 34.1875 40.9688 39.8438
Q37.0156 45.5156 29.9844 45.5156
Q22.9062 45.5156 19 39.9219
Q15.0938 34.3281 15.0938 25.3906
Q15.0938 16.8906 19.0469 11.1094
Q23 5.32812 29.9844 5.32812" id="AndaleMono-6f"/>
     <path d="
M49.7031 0
L42.0938 0
L42.0938 32.625
Q42.0938 39.4062 39.9219 42.4531
Q37.75 45.5156 33.1094 45.5156
Q26.125 45.5156 18.1094 36.8125
L18.1094 0
L10.5 0
L10.5 50.875
L18.1094 50.875
L18.1094 43.4062
Q26.3125 52.0938 35.4062 52.0938
Q49.7031 52.0938 49.7031 34.8125
z
" id="AndaleMono-6e"/>
     <path d="
M44.6719 61.2812
Q38.5312 63.375 33.0156 63.375
Q26.7656 63.375 22.8281 60.5156
Q18.8906 57.6719 18.8906 52.3906
Q18.8906 46.1406 29.2031 41.4062
Q36.8125 37.8906 39.2812 36.5156
Q41.75 35.1562 44.2812 32.7656
Q46.8281 30.375 48.3594 27.125
Q49.9062 23.875 49.9062 19.8281
Q49.9062 9.76562 43.1406 4.21875
Q36.375 -1.3125 27.2031 -1.3125
Q18.3125 -1.3125 11.625 2.20312
L13.2812 9.07812
Q21.1406 5.51562 27 5.51562
Q33.8438 5.51562 37.9688 9.04688
Q42.0938 12.5938 42.0938 18.7969
Q42.0938 23.3906 39.4062 26.5781
Q36.7188 29.7812 29.5 33.1094
Q22.0781 36.5312 19.8906 37.7656
Q17.7188 39.0156 15.5625 41.2031
Q13.4219 43.4062 12.25 46.1406
Q11.0781 48.875 11.0781 52.0938
Q11.0781 60.6406 17.2344 65.4219
Q23.3906 70.2188 32.8125 70.2188
Q39.7031 70.2188 46.4844 68.1094
z
" id="AndaleMono-53"/>
    </defs>
    <g transform="translate(217.5180875 20.34495)scale(0.1872 -0.1872)">
     <use xlink:href="#AndaleMono-53"/>
     <use x="60.009765625" xlink:href="#AndaleMono-75"/>
     <use x="120.01953125" xlink:href="#AndaleMono-70"/>
     <use x="180.029296875" xlink:href="#AndaleMono-70"/>
     <use x="240.0390625" xlink:href="#AndaleMono-72"/>
     <use x="300.048828125" xlink:href="#AndaleMono-65"/>
     <use x="360.05859375" xlink:href="#AndaleMono-73"/>
     <use x="420.068359375" xlink:href="#AndaleMono-73"/>
     <use x="480.078125" xlink:href="#AndaleMono-69"/>
     <use x="540.087890625" xlink:href="#AndaleMono-6f"/>
     <use x="600.09765625" xlink:href="#AndaleMono-6e"/>
     <use x="660.107421875" xlink:href="#AndaleMono-5f"/>
     <use x="720.1171875" xlink:href="#AndaleMono-53"/>
     <use x="780.126953125" xlink:href="#AndaleMono-69"/>
     <use x="840.13671875" xlink:href="#AndaleMono-7a"/>
     <use x="900.146484375" xlink:href="#AndaleMono-65"/>
    </g>
   </g>
  </g>
 </g>
 <defs>
  <clipPath id="pf395a14827">
   <rect height="279.0" width="558.0" x="26.5371875" y="25.34495"/>
  </clipPath>
 </defs>
</svg>
