<?xml version="1.0" encoding="utf-8" standalone="no"?>
<!DOCTYPE svg PUBLIC "-//W3C//DTD SVG 1.1//EN"
  "http://www.w3.org/Graphics/SVG/1.1/DTD/svg11.dtd">
<!-- Created with matplotlib (http://matplotlib.org/) -->
<svg height="314pt" version="1.1" viewBox="0 0 324 314" width="324pt" xmlns="http://www.w3.org/2000/svg" xmlns:xlink="http://www.w3.org/1999/xlink">
 <defs>
  <style type="text/css">
*{stroke-linecap:butt;stroke-linejoin:round;}
  </style>
 </defs>
 <g id="figure_1">
  <g id="patch_1">
   <path d="
M0 314.413
L324.691 314.413
L324.691 0
L0 0
z
" style="fill:#ffffff;"/>
  </g>
  <g id="axes_1">
   <g id="patch_2">
    <path d="
M29.4906 292.311
L317.491 292.311
L317.491 22.3115
L29.4906 22.3115
z
" style="fill:#eeeeee;"/>
   </g>
   <g id="matplotlib.axis_1">
    <g id="xtick_1">
     <g id="line2d_1">
      <path clip-path="url(#p8225b3988d)" d="
M173.491 292.311
L173.491 22.3115" style="fill:none;stroke:#000000;stroke-dasharray:1.000000,3.000000;stroke-dashoffset:0.0;stroke-width:0.5;"/>
     </g>
     <g id="line2d_2">
      <defs>
       <path d="
M0 0
L0 0" id="m8bc147ca23" style="stroke:#555555;stroke-width:0.5;"/>
      </defs>
      <g>
       <use style="fill:#555555;stroke:#555555;stroke-width:0.5;" x="173.490625" xlink:href="#m8bc147ca23" y="292.3115"/>
      </g>
     </g>
     <g id="text_1">
      <!-- CSS -->
      <defs>
       <path d="
M52.2969 4.29688
Q44.1875 -1.3125 33.5 -1.3125
Q20.125 -1.3125 13.1562 7.85938
Q6.20312 17.0469 6.20312 34.4219
Q6.20312 51.2188 12.9375 60.7188
Q19.6719 70.2188 33.5 70.2188
Q38.4844 70.2188 43.3594 68.9375
Q48.25 67.6719 51.2188 65.5781
L48.5781 59.2812
Q41.7031 63.1875 33.5 63.1875
Q23.9688 63.1875 19.3281 56.2656
Q14.7031 49.3594 14.7031 34.4219
Q14.7031 5.71875 33.5 5.71875
Q41.4531 5.71875 49.8125 10.5938
z
" id="AndaleMono-43"/>
       <path d="
M44.6719 61.2812
Q38.5312 63.375 33.0156 63.375
Q26.7656 63.375 22.8281 60.5156
Q18.8906 57.6719 18.8906 52.3906
Q18.8906 46.1406 29.2031 41.4062
Q36.8125 37.8906 39.2812 36.5156
Q41.75 35.1562 44.2812 32.7656
Q46.8281 30.375 48.3594 27.125
Q49.9062 23.875 49.9062 19.8281
Q49.9062 9.76562 43.1406 4.21875
Q36.375 -1.3125 27.2031 -1.3125
Q18.3125 -1.3125 11.625 2.20312
L13.2812 9.07812
Q21.1406 5.51562 27 5.51562
Q33.8438 5.51562 37.9688 9.04688
Q42.0938 12.5938 42.0938 18.7969
Q42.0938 23.3906 39.4062 26.5781
Q36.7188 29.7812 29.5 33.1094
Q22.0781 36.5312 19.8906 37.7656
Q17.7188 39.0156 15.5625 41.2031
Q13.4219 43.4062 12.25 46.1406
Q11.0781 48.875 11.0781 52.0938
Q11.0781 60.6406 17.2344 65.4219
Q23.3906 70.2188 32.8125 70.2188
Q39.7031 70.2188 46.4844 68.1094
z
" id="AndaleMono-53"/>
      </defs>
      <g style="fill:#555555;" transform="translate(165.30390625 305.2005625)scale(0.1 -0.1)">
       <use xlink:href="#AndaleMono-43"/>
       <use x="60.009765625" xlink:href="#AndaleMono-53"/>
       <use x="120.01953125" xlink:href="#AndaleMono-53"/>
      </g>
     </g>
    </g>
   </g>
   <g id="matplotlib.axis_2">
    <g id="ytick_1">
     <g id="line2d_3">
      <path clip-path="url(#p8225b3988d)" d="
M29.4906 292.311
L317.491 292.311" style="fill:none;stroke:#000000;stroke-dasharray:1.000000,3.000000;stroke-dashoffset:0.0;stroke-width:0.5;"/>
     </g>
     <g id="line2d_4">
      <g>
       <use style="fill:#555555;stroke:#555555;stroke-width:0.5;" x="29.490625" xlink:href="#m8bc147ca23" y="292.3115"/>
      </g>
     </g>
     <g id="text_2">
      <!-- 1.4 -->
      <defs>
       <path d="
M52.3906 15.9219
L43.8906 15.9219
L43.8906 0
L35.8906 0
L35.8906 15.9219
L5.90625 15.9219
L5.90625 22.0156
L33.1094 68.8906
L43.8906 68.8906
L43.8906 22.9062
L52.3906 22.9062
z

M35.8906 22.9062
L35.8906 60.9844
L14.0156 22.9062
z
" id="AndaleMono-34"/>
       <path d="
M29.6875 11.1875
Q32.2812 11.1875 34.0312 9.42188
Q35.7969 7.67188 35.7969 5.07812
Q35.7969 2.4375 34.0156 0.5625
Q32.2344 -1.3125 29.6875 -1.3125
Q27.2031 -1.3125 25.4375 0.5625
Q23.6875 2.4375 23.6875 5.07812
Q23.6875 7.71875 25.4219 9.45312
Q27.1562 11.1875 29.6875 11.1875" id="AndaleMono-2e"/>
       <path d="
M49.7031 0
L13.4844 0
L13.4844 6.98438
L28.0781 6.98438
L28.0781 60.5
L14.3125 53.6094
L14.3125 61.625
L29.2031 69.2812
L36.0781 69.2812
L36.0781 6.98438
L49.7031 6.98438
z
" id="AndaleMono-31"/>
      </defs>
      <g style="fill:#555555;" transform="translate(7.596875 294.74978125)scale(0.1 -0.1)">
       <use xlink:href="#AndaleMono-31"/>
       <use x="60.009765625" xlink:href="#AndaleMono-2e"/>
       <use x="120.01953125" xlink:href="#AndaleMono-34"/>
      </g>
     </g>
    </g>
    <g id="ytick_2">
     <g id="line2d_5">
      <path clip-path="url(#p8225b3988d)" d="
M29.4906 258.561
L317.491 258.561" style="fill:none;stroke:#000000;stroke-dasharray:1.000000,3.000000;stroke-dashoffset:0.0;stroke-width:0.5;"/>
     </g>
     <g id="line2d_6">
      <g>
       <use style="fill:#555555;stroke:#555555;stroke-width:0.5;" x="29.490625" xlink:href="#m8bc147ca23" y="258.5615"/>
      </g>
     </g>
     <g id="text_3">
      <!-- 1.6 -->
      <defs>
       <path d="
M17.6719 35.8906
Q24.125 41.1094 31.6875 41.1094
Q40.4375 41.1094 46.2656 35.5156
Q52.0938 29.9375 52.0938 21.0938
Q52.0938 11.375 46.9219 5.03125
Q41.75 -1.3125 33.1094 -1.3125
Q22.0781 -1.3125 15.625 8.8125
Q9.1875 18.9531 9.1875 33.5938
Q9.1875 49.2188 15.8906 59.7188
Q22.6094 70.2188 34.2812 70.2188
Q42.3281 70.2188 48.1875 67.8281
L46.9219 60.6875
Q40.1406 63.1875 34.5156 63.1875
Q26.5625 63.1875 22.1094 55.5625
Q17.6719 47.9531 17.6719 35.8906
M17.9219 29
Q17.9219 20.1719 22.0625 12.9375
Q26.2188 5.71875 32.5156 5.71875
Q37.8438 5.71875 40.7188 9.625
Q43.6094 13.5312 43.6094 20.4062
Q43.6094 26.7656 40.4219 30.4219
Q37.25 34.0781 31.5 34.0781
Q24.0312 34.0781 17.9219 29" id="AndaleMono-36"/>
      </defs>
      <g style="fill:#555555;" transform="translate(7.6265625 260.99978125)scale(0.1 -0.1)">
       <use xlink:href="#AndaleMono-31"/>
       <use x="60.009765625" xlink:href="#AndaleMono-2e"/>
       <use x="120.01953125" xlink:href="#AndaleMono-36"/>
      </g>
     </g>
    </g>
    <g id="ytick_3">
     <g id="line2d_7">
      <path clip-path="url(#p8225b3988d)" d="
M29.4906 224.811
L317.491 224.811" style="fill:none;stroke:#000000;stroke-dasharray:1.000000,3.000000;stroke-dashoffset:0.0;stroke-width:0.5;"/>
     </g>
     <g id="line2d_8">
      <g>
       <use style="fill:#555555;stroke:#555555;stroke-width:0.5;" x="29.490625" xlink:href="#m8bc147ca23" y="224.8115"/>
      </g>
     </g>
     <g id="text_4">
      <!-- 1.8 -->
      <defs>
       <path d="
M36.9219 37.7969
Q43.9531 35.75 47.8281 30.8125
Q51.7031 25.875 51.7031 19.2812
Q51.7031 9.8125 45.4219 4.25
Q39.1562 -1.3125 29.9844 -1.3125
Q20.3594 -1.3125 14.1875 4.29688
Q8.01562 9.90625 8.01562 19.1875
Q8.01562 25.7344 12.0156 30.7031
Q16.0156 35.6875 23.1875 37.7969
Q17.4844 39.2656 14.0312 43.4375
Q10.5938 47.6094 10.5938 52.7812
Q10.5938 59.4219 15.8594 64.8125
Q21.1406 70.2188 29.7812 70.2188
Q38.3281 70.2188 43.9219 64.8438
Q49.5156 59.4688 49.5156 52.7812
Q49.5156 47.75 46 43.5312
Q42.4844 39.3125 36.9219 37.7969
M29.7812 41.1094
Q30.0312 41.1094 32.125 41.6875
Q34.2344 42.2812 35.7188 43.1406
Q37.2031 44 38.4688 45.3125
Q39.75 46.625 40.5312 48.4062
Q41.3125 50.2031 41.3125 52.3906
Q41.3125 57.0781 37.9375 60.1719
Q34.5781 63.2812 29.7812 63.2812
Q25.1406 63.2812 21.8125 60.1094
Q18.5 56.9375 18.5 52.3906
Q18.5 49.5156 19.7031 47.3594
Q20.9062 45.2188 22.6875 43.8906
Q24.4688 42.5781 26.7812 41.8438
Q29.1094 41.1094 29.7812 41.1094
M29.7812 34.2812
Q16.4062 30.375 16.4062 19.5781
Q16.4062 13.2812 20.4531 9.5
Q24.5156 5.71875 29.9844 5.71875
Q35.6406 5.71875 39.5156 9.45312
Q43.4062 13.1875 43.4062 19.5781
Q43.4062 24.4219 40.7188 28.25
Q38.0312 32.0781 29.7812 34.2812" id="AndaleMono-38"/>
      </defs>
      <g style="fill:#555555;" transform="translate(7.665625 227.24978125)scale(0.1 -0.1)">
       <use xlink:href="#AndaleMono-31"/>
       <use x="60.009765625" xlink:href="#AndaleMono-2e"/>
       <use x="120.01953125" xlink:href="#AndaleMono-38"/>
      </g>
     </g>
    </g>
    <g id="ytick_4">
     <g id="line2d_9">
      <path clip-path="url(#p8225b3988d)" d="
M29.4906 191.061
L317.491 191.061" style="fill:none;stroke:#000000;stroke-dasharray:1.000000,3.000000;stroke-dashoffset:0.0;stroke-width:0.5;"/>
     </g>
     <g id="line2d_10">
      <g>
       <use style="fill:#555555;stroke:#555555;stroke-width:0.5;" x="29.490625" xlink:href="#m8bc147ca23" y="191.0615"/>
      </g>
     </g>
     <g id="text_5">
      <!-- 2.0 -->
      <defs>
       <path d="
M29.8906 70.2188
Q40.8281 70.2188 46.7031 60.8125
Q52.5938 51.4219 52.5938 34.4219
Q52.5938 17.9688 46.875 8.32812
Q41.1562 -1.3125 29.8906 -1.3125
Q19 -1.3125 13.0781 8.0625
Q7.17188 17.4375 7.17188 34.4219
Q7.17188 50.9219 12.9062 60.5625
Q18.6562 70.2188 29.8906 70.2188
M29.8906 5.71875
Q37.1094 5.71875 40.5938 12.5781
Q44.0938 19.4375 44.0938 34.4219
Q44.0938 49.4688 40.5938 56.2812
Q37.1094 63.0938 29.8906 63.0938
Q22.75 63.0938 19.2344 56.1094
Q15.7188 49.125 15.7188 34.4219
Q15.7188 19.5312 19.2031 12.625
Q22.7031 5.71875 29.8906 5.71875
M29.6875 41.75
Q32.7656 41.75 34.8906 39.625
Q37.0156 37.5 37.0156 34.4219
Q37.0156 31.25 34.8594 28.9688
Q32.7188 26.7031 29.6875 26.7031
Q26.7031 26.7031 24.5781 28.9688
Q22.4688 31.25 22.4688 34.4219
Q22.4688 37.5469 24.5312 39.6406
Q26.6094 41.75 29.6875 41.75" id="AndaleMono-30"/>
       <path d="
M47.9062 0
L10.0156 0
L10.0156 5.8125
Q24.4219 21.875 28.7188 27.3438
Q33.0156 32.8125 35.6875 38.8125
Q38.375 44.8281 38.375 50.7812
Q38.375 56.5469 34.875 59.8594
Q31.3906 63.1875 25.0938 63.1875
Q20.2656 63.1875 12.1094 60.2031
L10.9844 67.0938
Q18.3594 70.2188 26.4219 70.2188
Q35.6406 70.2188 41.2812 65.0156
Q46.9219 59.8125 46.9219 51.125
Q46.9219 44.9219 44.0156 38.8125
Q41.1094 32.7188 36.5625 27.0938
Q32.0312 21.4844 18.8906 6.98438
L47.9062 6.98438
z
" id="AndaleMono-32"/>
      </defs>
      <g style="fill:#555555;" transform="translate(7.2296875 193.49978125)scale(0.1 -0.1)">
       <use xlink:href="#AndaleMono-32"/>
       <use x="60.009765625" xlink:href="#AndaleMono-2e"/>
       <use x="120.01953125" xlink:href="#AndaleMono-30"/>
      </g>
     </g>
    </g>
    <g id="ytick_5">
     <g id="line2d_11">
      <path clip-path="url(#p8225b3988d)" d="
M29.4906 157.311
L317.491 157.311" style="fill:none;stroke:#000000;stroke-dasharray:1.000000,3.000000;stroke-dashoffset:0.0;stroke-width:0.5;"/>
     </g>
     <g id="line2d_12">
      <g>
       <use style="fill:#555555;stroke:#555555;stroke-width:0.5;" x="29.490625" xlink:href="#m8bc147ca23" y="157.3115"/>
      </g>
     </g>
     <g id="text_6">
      <!-- 2.2 -->
      <g style="fill:#555555;" transform="translate(7.6984375 159.74978125)scale(0.1 -0.1)">
       <use xlink:href="#AndaleMono-32"/>
       <use x="60.009765625" xlink:href="#AndaleMono-2e"/>
       <use x="120.01953125" xlink:href="#AndaleMono-32"/>
      </g>
     </g>
    </g>
    <g id="ytick_6">
     <g id="line2d_13">
      <path clip-path="url(#p8225b3988d)" d="
M29.4906 123.561
L317.491 123.561" style="fill:none;stroke:#000000;stroke-dasharray:1.000000,3.000000;stroke-dashoffset:0.0;stroke-width:0.5;"/>
     </g>
     <g id="line2d_14">
      <g>
       <use style="fill:#555555;stroke:#555555;stroke-width:0.5;" x="29.490625" xlink:href="#m8bc147ca23" y="123.5615"/>
      </g>
     </g>
     <g id="text_7">
      <!-- 2.4 -->
      <g style="fill:#555555;" transform="translate(7.25 125.99978125)scale(0.1 -0.1)">
       <use xlink:href="#AndaleMono-32"/>
       <use x="60.009765625" xlink:href="#AndaleMono-2e"/>
       <use x="120.01953125" xlink:href="#AndaleMono-34"/>
      </g>
     </g>
    </g>
    <g id="ytick_7">
     <g id="line2d_15">
      <path clip-path="url(#p8225b3988d)" d="
M29.4906 89.8115
L317.491 89.8115" style="fill:none;stroke:#000000;stroke-dasharray:1.000000,3.000000;stroke-dashoffset:0.0;stroke-width:0.5;"/>
     </g>
     <g id="line2d_16">
      <g>
       <use style="fill:#555555;stroke:#555555;stroke-width:0.5;" x="29.490625" xlink:href="#m8bc147ca23" y="89.8115"/>
      </g>
     </g>
     <g id="text_8">
      <!-- 2.6 -->
      <g style="fill:#555555;" transform="translate(7.2796875 92.24978125)scale(0.1 -0.1)">
       <use xlink:href="#AndaleMono-32"/>
       <use x="60.009765625" xlink:href="#AndaleMono-2e"/>
       <use x="120.01953125" xlink:href="#AndaleMono-36"/>
      </g>
     </g>
    </g>
    <g id="ytick_8">
     <g id="line2d_17">
      <path clip-path="url(#p8225b3988d)" d="
M29.4906 56.0615
L317.491 56.0615" style="fill:none;stroke:#000000;stroke-dasharray:1.000000,3.000000;stroke-dashoffset:0.0;stroke-width:0.5;"/>
     </g>
     <g id="line2d_18">
      <g>
       <use style="fill:#555555;stroke:#555555;stroke-width:0.5;" x="29.490625" xlink:href="#m8bc147ca23" y="56.0615"/>
      </g>
     </g>
     <g id="text_9">
      <!-- 2.8 -->
      <g style="fill:#555555;" transform="translate(7.31875 58.49978125)scale(0.1 -0.1)">
       <use xlink:href="#AndaleMono-32"/>
       <use x="60.009765625" xlink:href="#AndaleMono-2e"/>
       <use x="120.01953125" xlink:href="#AndaleMono-38"/>
      </g>
     </g>
    </g>
    <g id="ytick_9">
     <g id="line2d_19">
      <path clip-path="url(#p8225b3988d)" d="
M29.4906 22.3115
L317.491 22.3115" style="fill:none;stroke:#000000;stroke-dasharray:1.000000,3.000000;stroke-dashoffset:0.0;stroke-width:0.5;"/>
     </g>
     <g id="line2d_20">
      <g>
       <use style="fill:#555555;stroke:#555555;stroke-width:0.5;" x="29.490625" xlink:href="#m8bc147ca23" y="22.3115"/>
      </g>
     </g>
     <g id="text_10">
      <!-- 3.0 -->
      <defs>
       <path d="
M34.2812 37.0156
Q40.5781 35.25 44.375 30.5781
Q48.1875 25.9219 48.1875 20.125
Q48.1875 11.0312 41.1094 4.85938
Q34.0312 -1.3125 24.4219 -1.3125
Q16.2188 -1.3125 9.71875 2.29688
L11.2812 8.89062
Q18.0625 5.71875 24.7031 5.71875
Q30.9531 5.71875 35.375 9.59375
Q39.7969 13.4844 39.7969 19.5781
Q39.7969 25.5938 35.0625 29.3438
Q30.3281 33.1094 22.5156 33.1094
L20.4062 33.1094
L20.4062 39.7031
L21 39.7031
Q28.5156 39.7031 33.3906 43.2344
Q38.2812 46.7812 38.2812 52.7812
Q38.2812 57.6719 34.7656 60.4219
Q31.25 63.1875 25.0938 63.1875
Q19.7812 63.1875 13.1875 60.2969
L12.1094 67.1875
Q18.75 70.2188 25.4844 70.2188
Q34.7188 70.2188 40.7031 65.3594
Q46.6875 60.5 46.6875 52.875
Q46.6875 47.6094 43.0469 43.0469
Q39.4062 38.4844 34.2812 37.3125
z
" id="AndaleMono-33"/>
      </defs>
      <g style="fill:#555555;" transform="translate(7.2 24.74978125)scale(0.1 -0.1)">
       <use xlink:href="#AndaleMono-33"/>
       <use x="60.009765625" xlink:href="#AndaleMono-2e"/>
       <use x="120.01953125" xlink:href="#AndaleMono-30"/>
      </g>
     </g>
    </g>
   </g>
   <g id="line2d_21">
    <path clip-path="url(#p8225b3988d)" d="
M173.491 247.311
L173.491 275.436" style="fill:none;stroke:#348abd;stroke-dasharray:6.000000,6.000000;stroke-dashoffset:0.0;"/>
   </g>
   <g id="line2d_22">
    <path clip-path="url(#p8225b3988d)" d="
M173.491 166.954
L173.491 106.686" style="fill:none;stroke:#348abd;stroke-dasharray:6.000000,6.000000;stroke-dashoffset:0.0;"/>
   </g>
   <g id="line2d_23">
    <path clip-path="url(#p8225b3988d)" d="
M162.691 106.686
L184.291 106.686" style="fill:none;stroke:#000000;stroke-linecap:square;"/>
   </g>
   <g id="line2d_24">
    <path clip-path="url(#p8225b3988d)" d="
M162.691 275.436
L184.291 275.436" style="fill:none;stroke:#000000;stroke-linecap:square;"/>
   </g>
   <g id="line2d_25">
    <path clip-path="url(#p8225b3988d)" d="
M151.891 247.311
L195.091 247.311
L195.091 166.954
L151.891 166.954
L151.891 247.311" style="fill:none;stroke:#348abd;stroke-linecap:square;"/>
   </g>
   <g id="line2d_26">
    <path clip-path="url(#p8225b3988d)" d="
M151.891 247.311
L195.091 247.311" style="fill:none;stroke:#a60628;stroke-linecap:square;"/>
   </g>
   <g id="line2d_27">
    <defs>
     <path d="
M-3 0
L3 0
M0 3
L0 -3" id="md4acab13e0" style="stroke:#0000ff;stroke-width:0.5;"/>
    </defs>
    <g clip-path="url(#p8225b3988d)">
     <use style="fill:#0000ff;stroke:#0000ff;stroke-width:0.5;" x="173.490625" xlink:href="#md4acab13e0" y="22.3115"/>
    </g>
   </g>
   <g id="line2d_28"/>
   <g id="patch_3">
    <path d="
M29.4906 22.3115
L317.491 22.3115" style="fill:none;stroke:#bcbcbc;"/>
   </g>
   <g id="patch_4">
    <path d="
M317.491 292.311
L317.491 22.3115" style="fill:none;stroke:#bcbcbc;"/>
   </g>
   <g id="patch_5">
    <path d="
M29.4906 292.311
L317.491 292.311" style="fill:none;stroke:#bcbcbc;"/>
   </g>
   <g id="patch_6">
    <path d="
M29.4906 292.311
L29.4906 22.3115" style="fill:none;stroke:#bcbcbc;"/>
   </g>
   <g id="text_11">
    <!-- Contrast Size Tuning Shift -->
    <defs>
     <path d="
M44.3906 43.6094
Q37.9844 45.7031 32.3281 45.7031
Q26.125 45.7031 22.5 43.625
Q18.8906 41.5469 18.8906 38.0938
Q18.8906 35.8906 20.5469 34.25
Q22.2188 32.625 27.2031 31.2031
L34.4688 29.1094
Q39.5 27.6875 42.6719 25.7031
Q45.8438 23.7344 47.4375 20.9219
Q49.0312 18.1094 49.0312 14.4062
Q49.0312 7.125 42.9219 2.90625
Q36.8125 -1.3125 27.3906 -1.3125
Q18.0156 -1.3125 11.9219 1.51562
L13.375 8.10938
Q19.7812 5.07812 27.0938 5.07812
Q33.4531 5.07812 37.4219 7.4375
Q41.4062 9.8125 41.4062 13.7188
Q41.4062 16.3594 39.4219 18.4375
Q37.4531 20.5156 30.125 22.75
Q24.2188 24.5625 21.4375 25.4688
Q18.6562 26.375 16.2656 28.125
Q13.875 29.8906 12.625 32.3281
Q11.375 34.7656 11.375 37.7969
Q11.375 44.3906 17.1406 48.2344
Q22.9062 52.0938 32.4219 52.0938
Q38.5781 52.0938 46.0938 50
z
" id="AndaleMono-73"/>
     <path d="
M50.9844 0
L43.4062 0
Q42.4844 3.07812 42.4844 8.20312
Q35.9844 -1.3125 24.8125 -1.3125
Q19.1406 -1.3125 14.8125 2.70312
Q10.5 6.73438 10.5 13.0938
Q10.5 16.8438 12.0156 19.7188
Q13.5312 22.6094 16.4531 24.5781
Q19.3906 26.5625 23.5781 27.7031
Q27.7812 28.8594 33.5469 29.2969
L42.0938 29.9844
L42.0938 32.4219
Q42.0938 45.5156 29.8906 45.5156
Q27 45.5156 22.5781 44.2656
Q18.1719 43.0156 14.9844 41.3125
L12.9844 46.7812
Q23.3906 52.0938 32.3281 52.0938
Q49.7031 52.0938 49.7031 33.6875
L49.7031 11.8125
Q49.7031 5.17188 50.9844 0
M42.0938 15.0938
L42.0938 24.3125
Q31.7812 23.3906 27.9531 22.5781
Q24.125 21.7812 21.3125 19.5781
Q18.5 17.3906 18.5 13.625
Q18.5 10.2031 20.8906 8.09375
Q23.2969 6 27 6
Q31.0625 6 35.0625 8.42188
Q39.0625 10.8438 42.0938 15.0938" id="AndaleMono-61"/>
     <path d="
M49.6094 0
L42 0
L42 7.51562
Q33.7969 -1.21875 24.7031 -1.21875
Q10.4062 -1.21875 10.4062 16.1094
L10.4062 50.875
L18.0156 50.875
L18.0156 18.3125
Q18.0156 11.8125 20.0625 8.60938
Q22.125 5.42188 27 5.42188
Q33.9844 5.42188 42 14.1094
L42 50.875
L49.6094 50.875
z
" id="AndaleMono-75"/>
     <path d="
M50.2031 2.29688
Q42.5312 -1.21875 35.1094 -1.21875
Q21.4844 -1.21875 21.4844 13.1875
L21.4844 44.2812
L11.7188 44.2812
L11.7188 50.875
L21.4844 50.875
L21.4844 64.7969
L28.9062 64.7969
L28.9062 50.875
L46.1875 50.875
L46.1875 44.2812
L28.9062 44.2812
L28.9062 15.1875
Q28.9062 10.5469 30.9531 7.98438
Q33.0156 5.42188 36.5312 5.42188
Q42.7812 5.42188 48.875 8.20312
z
" id="AndaleMono-74"/>
     <path d="
M51.2188 25.2031
L16.3125 25.2031
Q16.3125 16.5469 21.3125 10.9375
Q26.3125 5.32812 33.5938 5.32812
Q40.5312 5.32812 47.9062 7.8125
L49.2188 1.70312
Q42.4844 -1.3125 33.5 -1.3125
Q22.1719 -1.3125 15.2344 5.95312
Q8.29688 13.2344 8.29688 25.5938
Q8.29688 37.7031 14.5156 44.8906
Q20.75 52.0938 30.6094 52.0938
Q39.4062 52.0938 45.3125 45.4062
Q51.2188 38.7188 51.2188 27.5938
z

M42.9219 31.3906
Q42.9219 37.3594 39.2031 41.4375
Q35.5 45.5156 30.9062 45.5156
Q25 45.5156 21.1094 41.6094
Q17.2344 37.7031 16.7969 31.3906
z
" id="AndaleMono-65"/>
     <path d="
M49.7031 0
L42.0938 0
L42.0938 32.625
Q42.0938 39.4062 39.9219 42.4531
Q37.75 45.5156 33.1094 45.5156
Q26.125 45.5156 18.1094 36.8125
L18.1094 0
L10.5 0
L10.5 68.8906
L18.1094 68.8906
L18.1094 43.4062
Q26.3125 52.0938 35.4062 52.0938
Q49.7031 52.0938 49.7031 34.8125
z
" id="AndaleMono-68"/>
     <path d="
M33.2969 70.125
Q35.4531 70.125 36.9688 68.5781
Q38.4844 67.0469 38.4844 64.8906
Q38.4844 62.6406 36.9844 61.125
Q35.5 59.625 33.2969 59.625
Q31.2969 59.625 29.75 61.2031
Q28.2188 62.7969 28.2188 64.8906
Q28.2188 67 29.75 68.5625
Q31.2969 70.125 33.2969 70.125
M37.0156 0
L29.3906 0
L29.3906 44.2812
L14.4062 44.2812
L14.4062 50.875
L37.0156 50.875
z
" id="AndaleMono-69"/>
     <path id="AndaleMono-20"/>
     <path d="
M49.0312 0
L9.90625 0
L9.90625 4.10938
L38.9219 44.1875
L10.5938 44.1875
L10.5938 50.875
L49.0312 50.875
L49.0312 47.125
L20.0156 6.6875
L49.0312 6.6875
z
" id="AndaleMono-7a"/>
     <path d="
M50.4844 49.5156
L47.4062 42.1875
Q42.3906 44.3906 38.7188 44.3906
Q35.3594 44.3906 32.125 42.4531
Q28.9062 40.5312 26.1875 36.9375
Q23.4844 33.3438 23.4844 32.9062
L23.4844 0
L15.9219 0
L15.9219 50.875
L23.4844 50.875
L23.4844 40.5781
Q29.5938 52.0938 39.3125 52.0938
Q45.0625 52.0938 50.4844 49.5156" id="AndaleMono-72"/>
     <path d="
M29.9844 52.0938
Q40.4844 52.0938 46.6719 44.7656
Q52.875 37.4531 52.875 25.4844
Q52.875 13.4219 46.6719 6.04688
Q40.4844 -1.3125 29.9844 -1.3125
Q19.4375 -1.3125 13.25 6.03125
Q7.07812 13.375 7.07812 25.4844
Q7.07812 37.5 13.2812 44.7969
Q19.4844 52.0938 29.9844 52.0938
M29.9844 5.32812
Q36.9219 5.32812 40.9219 11.1875
Q44.9219 17.0469 44.9219 25.3906
Q44.9219 34.1875 40.9688 39.8438
Q37.0156 45.5156 29.9844 45.5156
Q22.9062 45.5156 19 39.9219
Q15.0938 34.3281 15.0938 25.3906
Q15.0938 16.8906 19.0469 11.1094
Q23 5.32812 29.9844 5.32812" id="AndaleMono-6f"/>
     <path d="
M49.7031 0
L42.0938 0
L42.0938 32.625
Q42.0938 39.4062 39.9219 42.4531
Q37.75 45.5156 33.1094 45.5156
Q26.125 45.5156 18.1094 36.8125
L18.1094 0
L10.5 0
L10.5 50.875
L18.1094 50.875
L18.1094 43.4062
Q26.3125 52.0938 35.4062 52.0938
Q49.7031 52.0938 49.7031 34.8125
z
" id="AndaleMono-6e"/>
     <path d="
M50.2031 68.1094
L48.1875 61.9219
Q42.7812 63.4844 38.4844 63.4844
Q34.375 63.4844 32.8281 61.1562
Q31.2969 58.8438 31.2969 51.8125
L31.2969 50.875
L48.3906 50.875
L48.3906 44.2812
L31.2969 44.2812
L31.2969 0
L23.6875 0
L23.6875 44.2812
L10.8906 44.2812
L10.8906 50.875
L23.6875 50.875
L23.6875 52.5938
Q23.6875 62.3125 27 66.2188
Q30.3281 70.125 38.4844 70.125
Q43.75 70.125 50.2031 68.1094" id="AndaleMono-66"/>
     <path d="
M55.3281 62.4062
L34.0781 62.4062
L34.0781 0
L26.125 0
L26.125 62.4062
L4.78125 62.4062
L4.78125 68.8906
L55.3281 68.8906
z
" id="AndaleMono-54"/>
     <path d="
M24.6094 19.1875
Q17.4844 15.7188 17.4844 13.0938
Q17.4844 11.6719 19.1094 10.6875
Q20.75 9.71875 23.5781 9.71875
L40.7188 10.2031
Q46.8281 10.2031 50.2188 7.21875
Q53.6094 4.25 53.6094 -1.21875
Q53.6094 -9.85938 45.8906 -14.9844
Q38.1875 -20.125 27.875 -20.125
Q19.4375 -20.125 14.0625 -16.5781
Q8.6875 -13.0312 8.6875 -7.42188
Q8.6875 -1.3125 17 2.875
Q10.1094 6.10938 10.1094 10.7969
Q10.1094 16.1562 19 20.7969
Q14.8906 23.2969 12.6875 27.25
Q10.5 31.2031 10.5 35.5938
Q10.5 42.7812 15.375 47.3906
Q20.2656 52 27.5938 52
Q32.8594 52 37.1094 49.8125
L52.2031 52.0938
L52.2031 44.6719
L42.4844 44.6719
Q44.6719 40.8281 44.6719 35.5938
Q44.6719 28.6562 39.8438 23.875
Q35.0156 19.0938 27.5938 19.0938
Q26.0312 19.0938 24.6094 19.1875
M27.5938 25
Q31.7812 25 34.4375 27.9062
Q37.1094 30.8125 37.1094 35.5
Q37.1094 40.4375 34.5156 43.2188
Q31.9375 46 27.5938 46
Q23.5312 46 20.7656 43.0938
Q18.0156 40.1875 18.0156 35.5
Q18.0156 30.9062 20.7656 27.9531
Q23.5312 25 27.5938 25
M27.875 -14.2031
Q35.4062 -14.2031 40.7031 -10.8594
Q46 -7.51562 46 -2.59375
Q46 2.48438 38.4844 2.48438
Q35.9844 2.48438 29.8906 2.20312
Q26.0312 2 23.8281 2
Q22.75 2 20.4844 0.234375
Q18.2188 -1.51562 17.0156 -3.29688
Q15.8281 -5.07812 15.8281 -6.98438
Q15.8281 -9.96875 19.1406 -12.0781
Q22.4688 -14.2031 27.875 -14.2031" id="AndaleMono-67"/>
    </defs>
    <g transform="translate(61.847875 17.3115)scale(0.144 -0.144)">
     <use xlink:href="#AndaleMono-43"/>
     <use x="60.009765625" xlink:href="#AndaleMono-6f"/>
     <use x="120.01953125" xlink:href="#AndaleMono-6e"/>
     <use x="180.029296875" xlink:href="#AndaleMono-74"/>
     <use x="240.0390625" xlink:href="#AndaleMono-72"/>
     <use x="300.048828125" xlink:href="#AndaleMono-61"/>
     <use x="360.05859375" xlink:href="#AndaleMono-73"/>
     <use x="420.068359375" xlink:href="#AndaleMono-74"/>
     <use x="480.078125" xlink:href="#AndaleMono-20"/>
     <use x="540.087890625" xlink:href="#AndaleMono-53"/>
     <use x="600.09765625" xlink:href="#AndaleMono-69"/>
     <use x="660.107421875" xlink:href="#AndaleMono-7a"/>
     <use x="720.1171875" xlink:href="#AndaleMono-65"/>
     <use x="780.126953125" xlink:href="#AndaleMono-20"/>
     <use x="840.13671875" xlink:href="#AndaleMono-54"/>
     <use x="900.146484375" xlink:href="#AndaleMono-75"/>
     <use x="960.15625" xlink:href="#AndaleMono-6e"/>
     <use x="1020.16601562" xlink:href="#AndaleMono-69"/>
     <use x="1080.17578125" xlink:href="#AndaleMono-6e"/>
     <use x="1140.18554688" xlink:href="#AndaleMono-67"/>
     <use x="1200.1953125" xlink:href="#AndaleMono-20"/>
     <use x="1260.20507812" xlink:href="#AndaleMono-53"/>
     <use x="1320.21484375" xlink:href="#AndaleMono-68"/>
     <use x="1380.22460938" xlink:href="#AndaleMono-69"/>
     <use x="1440.234375" xlink:href="#AndaleMono-66"/>
     <use x="1500.24414062" xlink:href="#AndaleMono-74"/>
    </g>
   </g>
  </g>
 </g>
 <defs>
  <clipPath id="p8225b3988d">
   <rect height="270.0" width="288.0" x="29.490625" y="22.3115"/>
  </clipPath>
 </defs>
</svg>
